<?xml version="1.0" standalone="no"?><svg xmlns="http://www.w3.org/2000/svg" viewBox="0 0 1440 320"><path fill="#0099ff" fill-opacity="1" d="M0,288L34.3,256C68.6,224,137,160,206,149.3C274.3,139,343,181,411,202.7C480,224,549,224,617,224C685.7,224,754,224,823,224C891.4,224,960,224,1029,197.3C1097.1,171,1166,117,1234,96C1302.9,75,1371,85,1406,90.7L1440,96L1440,0L1405.7,0C1371.4,0,1303,0,1234,0C1165.7,0,1097,0,1029,0C960,0,891,0,823,0C754.3,0,686,0,617,0C548.6,0,480,0,411,0C342.9,0,274,0,206,0C137.1,0,69,0,34,0L0,0Z"></path></svg>